<svg width="150" height="150" viewBox="0 0 150 150" fill="none" xmlns="http://www.w3.org/2000/svg">
<path d="M75 150C60.1664 150 45.6659 145.601 33.3323 137.36C20.9986 129.119 11.3856 117.406 5.70907 103.701C0.0324963 89.9968 -1.45275 74.9168 1.44114 60.3682C4.33503 45.8197 11.4781 32.456 21.967 21.967C32.456 11.4781 45.8197 4.33503 60.3682 1.44114C74.9168 -1.45275 89.9968 0.0324963 103.701 5.70907C117.406 11.3856 129.119 20.9986 137.36 33.3323C145.601 45.6659 150 60.1664 150 75C150 94.8913 142.098 113.968 128.033 128.033C113.968 142.098 94.8913 150 75 150ZM75 11.5385C62.4485 11.5385 50.1789 15.2604 39.7427 22.2337C29.3065 29.2069 21.1725 39.1183 16.3692 50.7143C11.566 62.3104 10.3092 75.0704 12.7579 87.3807C15.2066 99.6911 21.2507 110.999 30.1259 119.874C39.0012 128.749 50.309 134.793 62.6193 137.242C74.9296 139.691 87.6896 138.434 99.2857 133.631C110.882 128.828 120.793 120.694 127.766 110.257C134.74 99.8212 138.462 87.5515 138.462 75C138.462 58.169 131.775 42.0273 119.874 30.1259C107.973 18.2246 91.8311 11.5385 75 11.5385Z" fill="#6D6678"/>
<path d="M75 80.7692C69.2947 80.7692 63.7176 79.0774 58.9739 75.9078C54.2302 72.7381 50.5329 68.233 48.3496 62.962C46.1663 57.6911 45.5951 51.8911 46.7081 46.2955C47.8211 40.6999 50.5685 35.56 54.6027 31.5258C58.6369 27.4916 63.7768 24.7442 69.3724 23.6312C74.968 22.5182 80.768 23.0894 86.0389 25.2727C91.3099 27.456 95.815 31.1533 98.9847 35.897C102.154 40.6407 103.846 46.2178 103.846 51.9231C103.846 59.5736 100.807 66.9107 95.3973 72.3204C89.9876 77.7301 82.6505 80.7692 75 80.7692ZM75 34.6154C71.5768 34.6154 68.2306 35.6305 65.3843 37.5323C62.5381 39.4341 60.3197 42.1371 59.0098 45.2997C57.6998 48.4623 57.357 51.9423 58.0248 55.2996C58.6927 58.657 60.3411 61.7409 62.7616 64.1615C65.1821 66.582 68.2661 68.2304 71.6234 68.8982C74.9808 69.566 78.4608 69.2233 81.6233 67.9133C84.7859 66.6033 87.489 64.3849 89.3908 61.5387C91.2926 58.6925 92.3077 55.3462 92.3077 51.9231C92.3077 47.3328 90.4842 42.9305 87.2384 39.6847C83.9925 36.4389 79.5903 34.6154 75 34.6154Z" fill="#6D6678"/>
<path d="M130.096 121.154C129.295 121.159 128.502 120.998 127.767 120.68C127.032 120.362 126.371 119.895 125.826 119.308C119.703 112.628 112.259 107.293 103.967 103.638C95.6753 99.9836 86.715 98.09 77.6533 98.077H72.3456C55.4545 98.0406 39.2122 104.579 27.0572 116.308C25.9341 117.234 24.5022 117.702 23.0487 117.617C21.5951 117.532 20.2274 116.901 19.22 115.85C18.2126 114.798 17.6399 113.405 17.6168 111.949C17.5937 110.493 18.122 109.083 19.0956 108C33.3795 94.194 52.4802 86.4958 72.3456 86.5386H77.6533C88.3046 86.5626 98.8358 88.7891 108.585 93.0782C118.335 97.3672 127.092 103.626 134.307 111.462C135.069 112.284 135.576 113.31 135.764 114.415C135.953 115.52 135.815 116.656 135.368 117.684C134.922 118.712 134.185 119.588 133.249 120.204C132.312 120.82 131.217 121.15 130.096 121.154Z" fill="#6D6678"/>
</svg>
