<svg width="28" height="31" viewBox="0 0 28 31" fill="none" xmlns="http://www.w3.org/2000/svg">
<path d="M18.4915 11.319C18.071 11.319 17.7302 11.6419 17.7302 12.0403V25.6731C17.7302 26.0712 18.071 26.3944 18.4915 26.3944C18.9119 26.3944 19.2527 26.0712 19.2527 25.6731V12.0403C19.2527 11.6419 18.9119 11.319 18.4915 11.319Z" fill="#75717C"/>
<path d="M9.5088 11.319C9.08833 11.319 8.74756 11.6419 8.74756 12.0403V25.6731C8.74756 26.0712 9.08833 26.3944 9.5088 26.3944C9.92927 26.3944 10.27 26.0712 10.27 25.6731V12.0403C10.27 11.6419 9.92927 11.319 9.5088 11.319Z" fill="#75717C"/>
<path d="M2.96209 9.32949V27.101C2.96209 28.1514 3.36858 29.1379 4.07867 29.8457C4.78549 30.5554 5.76916 30.9583 6.79861 30.96H21.2015C22.2312 30.9583 23.2149 30.5554 23.9214 29.8457C24.6315 29.1379 25.038 28.1514 25.038 27.101V9.32949C26.4496 8.97447 27.3642 7.68231 27.1754 6.30985C26.9863 4.93768 25.7526 3.91122 24.2919 3.91094H20.3945V3.0093C20.3989 2.25108 20.0825 1.52301 19.5161 0.987381C18.9496 0.452034 18.18 0.15393 17.3798 0.160129H10.6203C9.82008 0.15393 9.05051 0.452034 8.48404 0.987381C7.91758 1.52301 7.60119 2.25108 7.60565 3.0093V3.91094H3.70816C2.24754 3.91122 1.0138 4.93768 0.824675 6.30985C0.635853 7.68231 1.55053 8.97447 2.96209 9.32949V9.32949ZM21.2015 29.5174H6.79861C5.49707 29.5174 4.48457 28.458 4.48457 27.101V9.39289H23.5155V27.101C23.5155 28.458 22.503 29.5174 21.2015 29.5174ZM9.12812 3.0093C9.12307 2.63371 9.27888 2.27221 9.56019 2.00708C9.84119 1.74194 10.2236 1.59627 10.6203 1.60275H17.3798C17.7765 1.59627 18.1589 1.74194 18.4399 2.00708C18.7212 2.27193 18.877 2.63371 18.872 3.0093V3.91094H9.12812V3.0093ZM3.70816 5.35356H24.2919C25.0487 5.35356 25.6622 5.93483 25.6622 6.65191C25.6622 7.369 25.0487 7.95027 24.2919 7.95027H3.70816C2.95139 7.95027 2.33793 7.369 2.33793 6.65191C2.33793 5.93483 2.95139 5.35356 3.70816 5.35356V5.35356Z" fill="#75717C"/>
<path d="M14 11.319C13.5795 11.319 13.2388 11.6419 13.2388 12.0403V25.6731C13.2388 26.0712 13.5795 26.3944 14 26.3944C14.4205 26.3944 14.7613 26.0712 14.7613 25.6731V12.0403C14.7613 11.6419 14.4205 11.319 14 11.319Z" fill="#75717C"/>
</svg>
