<svg width="31" height="31" viewBox="0 0 31 31" fill="none" xmlns="http://www.w3.org/2000/svg">
<path d="M24.4233 15.5595C23.7136 15.5595 23.14 16.1345 23.14 16.8428V27.1099C23.14 27.817 22.565 28.3932 21.8568 28.3932H3.89004C3.18156 28.3932 2.60678 27.817 2.60678 27.1099V9.14249C2.60678 8.4354 3.18156 7.85919 3.89004 7.85919H14.1568C14.8664 7.85919 15.44 7.28416 15.44 6.57589C15.44 5.86739 14.8664 5.29236 14.1568 5.29236H3.89004C1.76742 5.29236 0.0400391 7.0198 0.0400391 9.14249V27.1099C0.0400391 29.2326 1.76742 30.96 3.89004 30.96H21.8568C23.9794 30.96 25.7068 29.2326 25.7068 27.1099V16.8428C25.7068 16.1331 25.1329 15.5595 24.4233 15.5595Z" fill="#6D6678"/>
<path d="M12.0723 14.3905C11.9826 14.4803 11.9222 14.5945 11.8966 14.7176L10.9893 19.2558C10.947 19.4662 11.0137 19.6831 11.1651 19.8358C11.287 19.9578 11.4513 20.0231 11.6195 20.0231C11.6604 20.0231 11.7029 20.0193 11.7452 20.0104L16.2819 19.1031C16.4076 19.0772 16.5218 19.0171 16.6104 18.9271L26.7641 8.773L22.2275 4.23645L12.0723 14.3905Z" fill="#6D6678"/>
<path d="M29.9005 1.09854C28.6495 -0.152801 26.614 -0.152801 25.3639 1.09854L23.5879 2.87462L28.1245 7.41141L29.9005 5.63509C30.5063 5.03069 30.84 4.22466 30.84 3.3674C30.84 2.51015 30.5063 1.70412 29.9005 1.09854Z" fill="#6D6678"/>
</svg>
