<svg width="50" height="50" viewBox="0 0 50 50" fill="none" xmlns="http://www.w3.org/2000/svg">
<path d="M0.5 4C0.5 2.067 2.067 0.5 4 0.5H46C47.933 0.5 49.5 2.067 49.5 4V46C49.5 47.933 47.933 49.5 46 49.5H4C2.067 49.5 0.5 47.933 0.5 46V4Z" stroke="white"/>
<path fill-rule="evenodd" clip-rule="evenodd" d="M24.4999 35.2396L22.9895 33.8646C17.6249 29 14.0833 25.7917 14.0833 21.8542C14.0833 18.6458 16.6041 16.125 19.8124 16.125C21.6249 16.125 23.3645 16.9687 24.4999 18.3021C25.6353 16.9687 27.3749 16.125 29.1874 16.125C32.3958 16.125 34.9166 18.6458 34.9166 21.8542C34.9166 25.7917 31.3749 29 26.0103 33.875L24.4999 35.2396Z" fill="white"/>
</svg>
