<svg width="144" height="149" viewBox="0 0 144 149" fill="none" xmlns="http://www.w3.org/2000/svg">
<path d="M6.78661 26.6287C12.522 30.3976 21.0571 34.2602 24.8172 39.89C20.216 46.2701 18.9674 50.7201 21.212 53.0846L46.9461 79.7404C39.6786 87.2904 48.1375 78.5063 4.34426 123.863C0.694646 127.39 -0.806257 132.699 0.429912 137.708C1.66608 142.718 5.44234 146.629 10.2784 147.91C15.1144 149.19 20.2396 147.635 23.6448 143.855C24.4311 143.043 16.973 150.766 66.2443 99.7298L91.9784 126.386C95.0641 129.54 101.271 125.354 104.726 122.654C110.15 126.556 113.879 135.384 117.515 141.325C120.376 146.002 125.568 148.572 130.879 147.94C136.19 147.308 140.683 143.585 142.445 138.357C144.207 133.129 142.927 127.318 139.15 123.399C135.054 119.149 123.438 115.2 118.718 108.158C122.166 103.415 125.059 97.8268 122.311 94.9465L104.917 76.9292C109.771 74.9939 114.49 72.712 119.04 70.0999C124.026 67.2164 128.648 63.7038 132.8 59.6424C153.84 37.9007 139.279 0.506075 109.523 0.506075C100.555 0.489497 91.9551 4.19346 85.6426 10.7908C78.2808 19.1663 72.5933 28.969 68.9082 39.6333L51.5401 21.6357C49.2741 19.3305 44.9827 20.6164 38.816 25.3873C33.3809 21.4901 29.6447 12.6394 26.0181 6.70354C22.9552 1.70247 17.254 -0.85348 11.6376 0.256445C6.0212 1.36637 1.62903 5.91698 0.558873 11.7348C-0.511282 17.5527 1.95771 23.4574 6.78661 26.6287ZM58.5217 78.768C62.077 78.8587 65.2368 81.1389 66.5508 84.562C67.8648 87.9852 67.0794 91.8902 64.5549 94.485C64.3166 94.7318 65.0315 94.0136 62.4485 96.6915C60.9552 90.2425 56.0792 85.2167 49.846 83.7017C52.5957 80.8461 51.7355 81.7692 52.0024 81.4804C53.7233 79.6867 56.0811 78.7057 58.5217 78.768ZM131.023 16.1293C132.262 19.6287 132.23 23.4755 130.932 26.9521C124.058 50.3425 90.5344 67.7058 69.5516 79.9206C69.3848 79.6738 67.5977 81.8506 131.023 16.1293ZM127.646 12.6468L66.1561 76.364C66.0132 76.2603 65.8773 76.1493 65.7296 76.0505C75.9494 58.0974 86.2216 38.0858 99.1148 24.748C109.034 14.4905 121.265 9.51968 127.646 12.6468ZM27.9791 132.395C24.6432 135.851 15.9317 131.268 14.4306 124.073C13.9622 122.441 14.3266 120.674 15.398 119.383C47.6705 85.9774 43.6769 90.1115 44.2869 89.4821C45.0845 88.6783 46.1681 88.2529 47.2797 88.3073C53.8657 88.2925 60.6233 97.6171 56.8585 102.499L27.9791 132.395ZM7.63965 140.442C4.17341 136.803 4.20539 130.944 7.71113 127.346L9.79607 125.189C11.328 131.607 16.1586 136.623 22.351 138.225L20.2827 140.367C16.8084 143.997 11.1534 144.031 7.63965 140.442ZM135.793 126.896C138.286 129.476 139.132 133.306 137.971 136.752C136.809 140.197 133.845 142.649 130.344 143.061C126.843 143.472 123.424 141.77 121.546 138.682C118.075 133.005 114.419 124.367 108.534 119.448C111.05 117.16 113.42 114.705 115.628 112.098C121.506 119.655 132.61 123.599 135.793 126.896ZM118.663 98.1428C118.513 99.8087 115.62 105.389 108.822 112.406C102.024 119.423 96.6701 122.434 95.0593 122.59L69.4325 96.0448C70.8112 94.0022 71.6432 91.6178 71.8438 89.1341C80.4457 86.0366 90.4868 82.6454 100.075 78.8889L118.663 98.1428ZM129.431 56.1624C117.405 68.7079 94.5041 75.8679 73.3474 83.371C95.8695 70.2603 131.652 51.3865 136.279 24.9356C140.054 35.8382 137.383 48.0191 129.431 56.1624ZM79.6641 27.5321C82.247 22.7385 85.387 18.2907 89.0142 14.2881C96.8778 6.05995 108.632 3.29742 119.154 7.20458C94.0967 11.8545 76.4593 47.482 63.4612 70.3146L72.0392 45.0336C74.0614 38.968 76.6144 33.1065 79.6665 27.5222L79.6641 27.5321ZM67.0926 44.7374L57.2016 73.8786C54.7818 74.0857 52.4598 74.961 50.4774 76.4134L24.8839 49.9007C25.8228 46.7883 27.4245 43.934 29.5708 41.5486C32.7915 37.4175 36.4256 33.6515 40.4125 30.3137C42.7195 28.0898 45.4779 26.4293 48.4854 25.4539L67.0926 44.7374ZM7.74211 7.6982C9.71602 5.65823 12.478 4.65801 15.249 4.97965C18.02 5.30129 20.4998 6.90992 21.9888 9.35185C25.4629 15.0285 29.1372 23.6941 35.0131 28.6032C32.4867 30.8755 30.118 33.3291 27.9243 35.9459C23.1826 29.8521 14.819 26.0512 9.33858 22.4601C6.98091 20.9167 5.42794 18.3473 5.11744 15.4763C4.80695 12.6053 5.77258 9.74371 7.74211 7.6982Z" fill="black"/>
</svg>
